<svg width="24" height="24" viewBox="0 0 24 24" fill="none" xmlns="http://www.w3.org/2000/svg">
<path d="M18.5 4.6H16.2V3C16.2 2.7 16 2.5 15.7 2.5C15.4 2.5 15.2 2.7 15.2 3V4.6H8.8V3C8.8 2.7 8.6 2.5 8.3 2.5C8 2.5 7.8 2.7 7.8 3V4.6H5.5C4.4 4.6 3.5 5.5 3.5 6.6V17.5C3.5 18.6 4.4 19.5 5.5 19.5H18.5C19.6 19.5 20.5 18.6 20.5 17.5V6.6C20.5 5.5 19.6 4.6 18.5 4.6ZM5.5 5.6H7.8V6.7C7.8 7 8 7.2 8.3 7.2C8.6 7.2 8.8 7 8.8 6.7V5.6H15.3V6.7C15.3 7 15.5 7.2 15.8 7.2C16.1 7.2 16.3 7 16.3 6.7V5.6H18.6C19.2 5.6 19.6 6 19.6 6.6V8.9H4.6V6.6C4.5 6.1 4.9 5.6 5.5 5.6ZM18.5 18.5H5.5C4.9 18.5 4.5 18.1 4.5 17.5V9.9H19.5V17.5C19.5 18.1 19.1 18.5 18.5 18.5Z" fill="#333333"/>
<path d="M7.5002 11.6C7.1002 11.6 6.7002 11.9 6.7002 12.4C6.7002 12.9 7.0002 13.2 7.5002 13.2C8.0002 13.2 8.3002 12.9 8.3002 12.4C8.3002 11.9 7.9002 11.6 7.5002 11.6Z" fill="#333333"/>
<path d="M7.5002 15.3C7.1002 15.3 6.7002 15.6 6.7002 16.1C6.7002 16.6 7.0002 16.9 7.5002 16.9C8.0002 16.9 8.3002 16.6 8.3002 16.1C8.3002 15.6 7.9002 15.3 7.5002 15.3Z" fill="#333333"/>
<path d="M12.0002 11.6C11.6002 11.6 11.2002 11.9 11.2002 12.4C11.2002 12.9 11.5002 13.2 12.0002 13.2C12.5002 13.2 12.8002 12.9 12.8002 12.4C12.8002 11.9 12.4002 11.6 12.0002 11.6Z" fill="#333333"/>
<path d="M12.0002 15.3C11.6002 15.3 11.2002 15.6 11.2002 16.1C11.2002 16.6 11.5002 16.9 12.0002 16.9C12.5002 16.9 12.8002 16.6 12.8002 16.1C12.8002 15.6 12.4002 15.3 12.0002 15.3Z" fill="#333333"/>
<path d="M16.5002 11.6C16.1002 11.6 15.7002 11.9 15.7002 12.4C15.7002 12.9 16.0002 13.2 16.5002 13.2C17.0002 13.2 17.3002 12.9 17.3002 12.4C17.3002 11.9 17.0002 11.6 16.5002 11.6Z" fill="#333333"/>
<path d="M16.5002 15.3C16.1002 15.3 15.7002 15.6 15.7002 16.1C15.7002 16.6 16.0002 16.9 16.5002 16.9C17.0002 16.9 17.3002 16.6 17.3002 16.1C17.3002 15.6 17.0002 15.3 16.5002 15.3Z" fill="#333333"/>
</svg>
