<svg width="20" height="20" viewBox="0 0 20 20" fill="none" xmlns="http://www.w3.org/2000/svg">
<path d="M2.93327 19.9997C2.53327 19.9997 2.2666 19.7446 2.2666 19.362V5.97069C2.2666 5.58808 2.53327 5.33301 2.93327 5.33301C3.33327 5.33301 3.59993 5.58808 3.59993 5.97069V19.362C3.59993 19.7446 3.33327 19.9997 2.93327 19.9997Z" fill="#333333"/>
<path d="M10 20C9.60001 20 9.33334 19.7419 9.33334 19.3548V12.6452C9.33334 12.2581 9.60001 12 10 12C10.4 12 10.6667 12.2581 10.6667 12.6452V19.3548C10.6667 19.7419 10.4 20 10 20Z" fill="#333333"/>
<path d="M16.9333 14.6667C16.5333 14.6667 16.2667 14.4116 16.2667 14.029V0.637681C16.2667 0.255072 16.5333 0 16.9333 0C17.3333 0 17.6 0.255072 17.6 0.637681V14.029C17.6 14.4116 17.3333 14.6667 16.9333 14.6667Z" fill="#333333"/>
<path d="M10 8C9.60001 8 9.33334 7.74194 9.33334 7.35484V0.645161C9.33334 0.258065 9.60001 0 10 0C10.4 0 10.6667 0.258065 10.6667 0.645161V7.35484C10.6667 7.74194 10.4 8 10 8Z" fill="#333333"/>
<path fill-rule="evenodd" clip-rule="evenodd" d="M16.9333 19.8667C18.5534 19.8667 19.8667 18.5534 19.8667 16.9333C19.8667 15.3133 18.5534 14 16.9333 14C15.3133 14 14 15.3133 14 16.9333C14 18.5534 15.3133 19.8667 16.9333 19.8667ZM16.9333 18.6933C17.9054 18.6933 18.6933 17.9054 18.6933 16.9333C18.6933 15.9613 17.9054 15.1733 16.9333 15.1733C15.9613 15.1733 15.1733 15.9613 15.1733 16.9333C15.1733 17.9054 15.9613 18.6933 16.9333 18.6933Z" fill="#333333"/>
<path fill-rule="evenodd" clip-rule="evenodd" d="M2.93333 5.86667C4.55337 5.86667 5.86667 4.55337 5.86667 2.93333C5.86667 1.3133 4.55337 0 2.93333 0C1.3133 0 0 1.3133 0 2.93333C0 4.55337 1.3133 5.86667 2.93333 5.86667ZM2.93333 4.69333C3.90535 4.69333 4.69333 3.90535 4.69333 2.93333C4.69333 1.96131 3.90535 1.17333 2.93333 1.17333C1.96131 1.17333 1.17333 1.96131 1.17333 2.93333C1.17333 3.90535 1.96131 4.69333 2.93333 4.69333Z" fill="#333333"/>
<path fill-rule="evenodd" clip-rule="evenodd" d="M10.0001 12.9331C11.6201 12.9331 12.9334 11.6198 12.9334 9.99974C12.9334 8.3797 11.6201 7.06641 10.0001 7.06641C8.38004 7.06641 7.06674 8.3797 7.06674 9.99974C7.06674 11.6198 8.38004 12.9331 10.0001 12.9331ZM10.0001 11.7597C10.9721 11.7597 11.7601 10.9718 11.7601 9.99974C11.7601 9.02772 10.9721 8.23974 10.0001 8.23974C9.02805 8.23974 8.24008 9.02772 8.24008 9.99974C8.24008 10.9718 9.02805 11.7597 10.0001 11.7597Z" fill="#333333"/>
</svg>
